<svg width="304" height="286" viewBox="0 0 304 286" fill="none" xmlns="http://www.w3.org/2000/svg"><path fill-rule="evenodd" clip-rule="evenodd" d="M47.539 280.807c-1.691-15.247 4.975-55.211-11.09-48.569-9.653 6.944-12.52 24.036-9.08 37.662-14.483 1.601-20.106 16.064-20.159 13.878 6.944.089 31.28-.918 40.329-2.972v.001z" fill="#8FC34B" stroke="#000" stroke-width="3.356" stroke-linejoin="round"/><path fill-rule="evenodd" clip-rule="evenodd" d="M161.564 43.27l13.359 25.083c17.877-.618 14.151-32.625-13.359-25.083zM175.874 72.54l6.071 21.292c15.268 1.231 18.378-27.014-6.071-21.293z" fill="#1C8449" stroke="#000" stroke-width="2.297" stroke-linejoin="round"/><path fill-rule="evenodd" clip-rule="evenodd" d="M183.748 99.728l4.031 17.503c15.268 1.231 20.418-23.225-4.031-17.503z" fill="#1C8449" stroke="#000" stroke-width="1.709" stroke-linejoin="round"/><path fill-rule="evenodd" clip-rule="evenodd" d="M144.972 21.52l15.108 14.005c18.547 2.39-2.51-36.332-15.108-14.005z" fill="#1C8449" stroke="#000" stroke-width="1.205" stroke-linejoin="round"/><path fill-rule="evenodd" clip-rule="evenodd" d="M105.568 10.67l30.559 5.55c5.807.867-3.214-13.276-7.912-14.411-2.882-.696-12.578 2.486-22.648 8.86h.001z" fill="#1C8449" stroke="#000" stroke-width="2.381" stroke-linejoin="round"/><path fill-rule="evenodd" clip-rule="evenodd" d="M76.215 15.208l21.814-4.07c5.807.867-3.96-7.226-8.64-8.434-4.63-1.196-6.662 5.114-13.174 12.505v0z" fill="#1C8449" stroke="#000" stroke-width="2.633" stroke-linejoin="round"/><path fill-rule="evenodd" clip-rule="evenodd" d="M196.619 199.027l-1.536 16.884c13.973 2.441 19.727-16.765 1.536-16.884z" fill="#1C8449" stroke="#000" stroke-width="1.709" stroke-linejoin="round"/><path fill-rule="evenodd" clip-rule="evenodd" d="M198.954 229.428l21.346 8.433c6.988.43-3.868-9.114-5.816-11.725-2.95-3.954-13.184-1.465-15.53 3.292v0z" fill="#1C8449" stroke="#000" stroke-width="1.485" stroke-linejoin="round"/><path fill-rule="evenodd" clip-rule="evenodd" d="M227.029 237.04l19.079 7.402c-2.313-2.637-6.063-13.203-8.198-13.147-2.322 1.534-8.579 3.623-10.881 5.745v0zM247.505 244.717l20.522 4.516c-2.313-2.637-11.423-13.616-13.557-13.559-2.322 1.534-4.663 6.921-6.965 9.043h0zM276.564 252.714l19.079 3.28c-3.934-9.982-10.343-14.261-19.079-3.28z" fill="#1C8449" stroke="#000" stroke-width="1.233" stroke-linejoin="round"/><path fill-rule="evenodd" clip-rule="evenodd" d="M134.261 158.117c-8.196-9.796-17.717 2.74-24.78-5.539.994 9.888-7.443 9.496-10.786 2.769l-6.414 12.682c18.335 1.037 28.507-6.088 41.98-9.912v0z" fill="#000" stroke="#000" stroke-width=".28"/><path fill-rule="evenodd" clip-rule="evenodd" d="M24.735 99.96C22.133 79.474 28.497 62.495 38.7 49.003c10.16-11.669 22.485-23.77 35.31-30.462 31.638-16.282 71.496-4.063 93.54 26.438 17.557 49.202 33.55 105.594 7.049 126.926 12.509-4.112 13.014-33.992 35.663-43.289 11.321 13.629 6.413 36.509-22.264 65.139 6.278 4.775 11.622 11.682 10.307 33.808l-5.359 4.123 13.605 1.236 95.239 28.448c-38.79 9.506-118.92 33.805-124.1 5.36l2.062 7.627 2.473 6.184-48.855.206c3.887-7.567 2.101-14.822 11.338-15.254 1.218-43.956 16.398-32.706 21.233-39.579 0 0-13.109-1.079-20.408 21.439l-2.886 15.254c-4.226 3.986-9.234 3.28-11.956 16.285l-92.144 2.062c.414-25.347 6.817-31.025 2.256-79.309-1.422-15.054-1.167-29.003-2.596-42.003-2.468-22.456-7.102-42.08-13.471-59.68l-.002-.002z" fill="#8FC34B" stroke="#000" stroke-width="4.146" stroke-linejoin="round"/><path fill-rule="evenodd" clip-rule="evenodd" d="M48.838 109.793c7.503 18.736 13.213 37.468 11.224 59.179 28.859 3.222 64.113.906 95.036-15.597 3.733 3.207 5.511 1.458 6.802-1.71.866-2.127 1.673-5.134 2.105-6.812 5.783-22.711-3.35-53.139-12.113-63.924C60.639 91.903 69.115 97.28 49.419 109.936l-.581-.143z" fill="#000" stroke="#000" stroke-width=".28"/><path fill-rule="evenodd" clip-rule="evenodd" d="M158.021 113.076l-.241 27.887c-12.134 18.323-33.913 21.534-55.492 24.118 2.039-19.37-11.356-47.42 55.733-52.003v-.002z" fill="#CB1D3B" stroke="#CB1D3B" stroke-width="3.894"/><path fill-rule="evenodd" clip-rule="evenodd" d="M54.202 106.659c18.092-8.452 32.31-18.396 70.548-20.587-2.825 5.732-1.004 11.673-3.792 15.167-1.969-1.569-3.314-3.45-4.463-5.427-1.236-1.92-3.994-2.737-4.699-1.473-.976 1.75.177 6.284-1.447 6.609-11.38-13.284-14.138-.312-14.489 7.246-6.964-3.448-7.972-6.437-7.412-9.306 0 0-8.204-1.553-7.005 9.268-2.67.309-5.297.473-6.824-3.219-5.576-7.116-12.947 9.789-10.872 16.817-9.394.089-9.095-9.763-9.544-15.095h-.001z" fill="#fff" stroke="#000" stroke-width=".802"/><path fill-rule="evenodd" clip-rule="evenodd" d="M40.73 92.437c-1.207-8.528 8.06-33.584 24.067-11.06 7.747 10.016-9.793 23.229-24.067 11.06v0z" fill="#000" stroke="#000" stroke-width=".392" stroke-linejoin="round"/><path fill-rule="evenodd" clip-rule="evenodd" d="M51.902 85.16c13.895.36 3.226-10.626.359-5.907-.505.945-.36 2.804-.36 5.906z" fill="#fff" stroke="#fff" stroke-width=".448" stroke-linejoin="round"/><path fill-rule="evenodd" clip-rule="evenodd" d="M135.038 40.975c-5.01-6.736-13.122-9.646-21.304-6.818-3.687 1.312-6.626 4.036-9.128 7.696-2.843 4.257-3.959 9.397-3.432 14.382 1.515 10.866 9.709 17.587 20.036 17.83 7.471-.621 14.712-6.36 16.454-17.686.505-5.743-.557-11.662-2.625-15.404h-.001z" fill="#000" stroke="#000" stroke-width=".28"/><path fill-rule="evenodd" clip-rule="evenodd" d="M119.245 48.792c7.257.973 8.488-8.31 6.188-10.776-2.14-1.387-5.922-.727-8.011 1.452-2.781 2.623-2.234 5.69-.8 7.283 2.461-.683 3.306-.051 2.623 2.041v0z" fill="#fff" stroke="#fff" stroke-width=".56" stroke-linejoin="round"/><path d="M137.87 34.614c-8.918-13.658-26.386-12.998-31.746-6.184" stroke="#000" stroke-width=".98"/><path fill-rule="evenodd" clip-rule="evenodd" d="M147.921 81.279c1.737 15.07-1.106 32.159-9.056 36.758-5.619-12.706-8.994-25.285-21.709-30.898 9.726-6.19 20.219-6.239 30.765-5.86v0z" fill="#fff" stroke="#000" stroke-width="2.414"/><path fill-rule="evenodd" clip-rule="evenodd" d="M45.34 112.712c29.204-24.604 65.794-33.972 107.428-32.943l-1.166 2.041c-35.893 1.72-71.145 10.233-106.261 30.902h-.001z" fill="#000" stroke="#000" stroke-width="1.289" stroke-linejoin="round"/><path fill-rule="evenodd" clip-rule="evenodd" d="M152.302 80.792c14.109 41.812 13.473 54.35 8.164 70.815-.023-2.459-2.204.669-2.212-1.763-.076-23.368-2.349-45.944-9.662-66.992l3.71-2.06z" fill="#000"/><path fill-rule="evenodd" clip-rule="evenodd" d="M74.797 169.859c-1.238-5.591-5.629-10.353-9.308-14.549.655 9.639-4.529 9.014-6.01 13.868l15.318.681z" fill="#fff" stroke="#000" stroke-width=".91" stroke-linejoin="round"/><path fill-rule="evenodd" clip-rule="evenodd" d="M92.403 168.204c-3.076-1.63-5.072-3.287-4.609-4.652.369-1.084-.196-2.052-1.016-3.009-3.76-6.325-6.31 6.054-6.351 9.461l11.976-1.8zM106.287 165.719c-2.85-2.351-4.632-5.397-6.792-7.952-6.75 3.64-4.249 6.909-4.164 9.899l10.956-1.947z" fill="#fff" stroke="#000" stroke-width=".719" stroke-linejoin="round"/><path fill-rule="evenodd" clip-rule="evenodd" d="M59.618 168.827c36.71 1.48 61.339 3.367 96.885-15.306l-.889-3.182c-31.589 17.129-55.25 17.966-95.994 18.488h-.002z" fill="#000" stroke="#000" stroke-width="1.289" stroke-linejoin="round"/><path fill-rule="evenodd" clip-rule="evenodd" d="M154.44 154.596c-4.967-27.734-14.636-23.312-14.51 3.375 2.729-2.005 11.781-3.212 14.51-3.375z" fill="#fff" stroke="#000" stroke-width="1.559" stroke-linejoin="round"/><path fill-rule="evenodd" clip-rule="evenodd" d="M143.734 159.719c-13.161-7.666-15.406-.864-31.777-7.871l-4.081 16.908 35.858-9.037z" fill="#000" stroke="#000" stroke-width=".28"/><path fill-rule="evenodd" clip-rule="evenodd" d="M118.718 164.328c.503-3.664-3.611-4.96-5.771-7.515-6.75 3.64-5.998 5.598-5.914 8.586 2.729-2.004 8.956-.908 11.685-1.071v0z" fill="#fff" stroke="#000" stroke-width=".719" stroke-linejoin="round"/><path fill-rule="evenodd" clip-rule="evenodd" d="M130.144 275.057l-4.327.247-50.65 2.895c-1.69-19.044-9.004-32.401-6.79-45.199 5.526-31.951 46.743-39.182 60.671-9.086 4.812 10.399 5.664 25.236 5.786 41.719.02 2.578-7.33 4.907-6.093 8.959l1.403.465z" fill="#009143" stroke="#000" stroke-width="2.473" stroke-linejoin="round"/><path d="M86.337 222.203l30.922-6.184M103.035 262.815l30.921-6.185" stroke="#000" stroke-width="1.289" stroke-linejoin="round"/><path d="M73.305 239.621l53.687-5.976" stroke="#000" stroke-width="1.557" stroke-linejoin="round"/><path d="M100.344 251.529l31.349-3.4M84.48 273.534l30.922-6.185" stroke="#000" stroke-width="1.289" stroke-linejoin="round"/><path fill-rule="evenodd" clip-rule="evenodd" d="M39.953 187.544l-1.063-5.663c-.298-21.304-2.88 12.413-.577-26.624 1.095-18.556-16.22-30.219-36.356-27.233-3.268 28.273 42.731 43.332 37.997 59.521v-.001z" fill="#8FC34B" stroke="#000" stroke-width="3.356" stroke-linejoin="round"/></svg>
